# xmcd CD database file
#
# Track frame offsets:
#	150
#	14785
#	32390
#	49735
#	82487
#	89612
#	114549
#	136691
#	155126
#	172029
#	176026
#	198139
#	218082
#	232699
#	253927
#	256832
#	272600
#	284610
#	294335
#	315220
#
# Disc length: 4678 seconds
#
# Revision: 0
# Processed by: cddbd v1.5.2PL0 Copyright (c) Steve Scherf et al.
# Submitted via: Feurio! 1.68 - http://www.feurio.com
#
DISCID=1f124414
DTITLE=The Sensational Alex Harvey Band - The Impossible Dream
DYEAR=1900
DGENRE=
TTITLE0=Action Strasse
TTITLE1=Snake bite
TTITLE2=Soul in chains
TTITLE3=The tale of the giant stoneeater
TTITLE4=ribs and balls
TTITLE5=give my compöliments to the chief
TTITLE6=sharks teeth
TTITLE7=shake that thing
TTITLE8=tommorow belongs to me
TTITLE9=to be continued
TTITLE10=big boy
TTITLE11=pick it and kick it
TTITLE12=river of love
TTITLE13=long hair music
TTITLE14=hey
TTITLE15=sergeant fury
TTITLE16=weights made of lead
TTITLE17=money honey - impossible dream
TTITLE18=tomahawk kid
TTITLE19=Anthem
EXTD=
EXTT0=
EXTT1=
EXTT2=
EXTT3=
EXTT4=
EXTT5=
EXTT6=
EXTT7=
EXTT8=
EXTT9=
EXTT10=
EXTT11=
EXTT12=
EXTT13=
EXTT14=
EXTT15=
EXTT16=
EXTT17=
EXTT18=
EXTT19=
PLAYORDER=
